<svg width="30" height="31" viewBox="0 0 30 31" fill="none" xmlns="http://www.w3.org/2000/svg">
<path fill-rule="evenodd" clip-rule="evenodd" d="M10.3125 11.865C10.3125 9.24507 12.4112 7.12122 15 7.12122C17.5888 7.12122 19.6875 9.24507 19.6875 11.865C19.6875 14.4849 17.5888 16.6087 15 16.6087C12.4112 16.6087 10.3125 14.4849 10.3125 11.865ZM15 9.01872C13.4467 9.01872 12.1875 10.293 12.1875 11.865C12.1875 13.4369 13.4467 14.7112 15 14.7112C16.5533 14.7112 17.8125 13.4369 17.8125 11.865C17.8125 10.293 16.5533 9.01872 15 9.01872Z" fill="white"/>
<path fill-rule="evenodd" clip-rule="evenodd" d="M1.5625 15.66C1.5625 8.14964 7.57867 2.06128 15 2.06128C22.4213 2.06128 28.4375 8.14964 28.4375 15.66C28.4375 23.1704 22.4213 29.2588 15 29.2588C7.57867 29.2588 1.5625 23.1704 1.5625 15.66ZM15 3.95878C8.6142 3.95878 3.4375 9.1976 3.4375 15.66C3.4375 18.8802 4.72283 21.7965 6.80263 23.9124C7.02812 22.6813 7.47118 21.5207 8.36047 20.5873C9.69065 19.1912 11.8177 18.5063 14.9999 18.5063C18.1822 18.5063 20.3092 19.1912 21.6393 20.5873C22.5287 21.5207 22.9718 22.6813 23.1973 23.9124C25.2772 21.7966 26.5625 18.8802 26.5625 15.66C26.5625 9.1976 21.3858 3.95878 15 3.95878ZM21.4922 25.344C21.3647 23.811 21.0358 22.6875 20.2897 21.9044C19.4778 21.0525 17.9737 20.4038 14.9999 20.4038C12.0262 20.4038 10.522 21.0525 9.71018 21.9044C8.96408 22.6875 8.63513 23.811 8.50778 25.344C10.3585 26.6173 12.5934 27.3613 15 27.3613C17.4065 27.3613 19.6413 26.6173 21.4922 25.344Z" fill="white"/>
</svg>
